HIERARCHY
ROOT Pelvis
{
	OFFSET 0.000000 0.000000 0.000000
	CHANNELS 6 Xposition Yposition Zposition Xrotation Yrotation Zrotation
	JOINT LeftUpLeg_virtual
	{
		OFFSET 0.000000 0.000000 0.000000
		CHANNELS 3 Xrotation Yrotation Zrotation
		JOINT LeftUpLeg
		{
			OFFSET 18.735201 -5.666702 -4.541200
			CHANNELS 3 Xrotation Yrotation Zrotation
			JOINT LeftLeg
			{
				OFFSET -0.021200 -31.938179 0.493100
				CHANNELS 3 Xrotation Yrotation Zrotation
				JOINT LeftFoot
				{
					OFFSET 0.021200 -31.938179 -4.336299
					CHANNELS 3 Xrotation Yrotation Zrotation
					JOINT LeftToeBase
					{
						OFFSET 0.943001 -26.722000 15.023500
						CHANNELS 3 Xrotation Yrotation Zrotation
						End Site
						{
							OFFSET 0 0 0
						}
					}
				}
			}
		}
	}
	JOINT RightUpLeg_virtual
	{
		OFFSET 0.000000 0.000000 0.000000
		CHANNELS 3 Xrotation Yrotation Zrotation
		JOINT RightUpLeg
		{
			OFFSET -18.735201 -5.666702 -4.541200
			CHANNELS 3 Xrotation Yrotation Zrotation
			JOINT RightLeg
			{
				OFFSET 0.018946 -31.938133 0.493100
				CHANNELS 3 Xrotation Yrotation Zrotation
				JOINT RightFoot
				{
					OFFSET -0.018946 -31.938126 -4.336299
					CHANNELS 3 Xrotation Yrotation Zrotation
					JOINT RightToeBase
					{
						OFFSET -0.943001 -26.722004 15.023500
						CHANNELS 3 Xrotation Yrotation Zrotation
						End Site
						{
							OFFSET 0 0 0
						}
					}
				}
			}
		}
	}
	JOINT Hips_virtual
	{
		OFFSET 0.000000 0.000000 0.000000
		CHANNELS 3 Xrotation Yrotation Zrotation
		JOINT Hips
		{
			OFFSET -0.000000 -0.000000 -0.000000
			CHANNELS 3 Xrotation Yrotation Zrotation
			JOINT Spine
			{
				OFFSET 0.000000 10.199997 -0.299500
				CHANNELS 3 Xrotation Yrotation Zrotation
				JOINT Spine1
				{
					OFFSET 0.000000 11.900002 -1.516600
					CHANNELS 3 Xrotation Yrotation Zrotation
					JOINT Spine2
					{
						OFFSET 0.000000 13.600006 -2.842500
						CHANNELS 3 Xrotation Yrotation Zrotation
						JOINT Neck_virtual
						{
							OFFSET 0.000000 0.000000 0.000000
							CHANNELS 3 Xrotation Yrotation Zrotation
							JOINT Neck
							{
								OFFSET 0.000000 9.624100 -2.890100
								CHANNELS 3 Xrotation Yrotation Zrotation
								JOINT Head
								{
									OFFSET 0.000000 14.068802 -1.351900
									CHANNELS 3 Xrotation Yrotation Zrotation
									End Site
									{
										OFFSET 0 0 0
									}
								}
							}
						}
						JOINT LeftShoulder_virtual
						{
							OFFSET 0.000000 0.000000 0.000000
							CHANNELS 3 Xrotation Yrotation Zrotation
							JOINT LeftShoulder
							{
								OFFSET 15.263000 10.923401 -0.547700
								CHANNELS 3 Xrotation Yrotation Zrotation
								JOINT LeftArm
								{
									OFFSET 25.438599 -2.830597 -13.032500
									CHANNELS 3 Xrotation Yrotation Zrotation
									JOINT LeftForeArm
									{
										OFFSET 29.960503 0.000000 0.000000
										CHANNELS 3 Xrotation Yrotation Zrotation
										JOINT LeftHand
										{
											OFFSET 27.849251 0.000000 0.000000
											CHANNELS 3 Xrotation Yrotation Zrotation
											End Site
											{
												OFFSET 0 0 0
											}
										}
									}
								}
							}
						}
						JOINT RightShoulder_virtual
						{
							OFFSET 0.000000 0.000000 0.000000
							CHANNELS 3 Xrotation Yrotation Zrotation
							JOINT RightShoulder
							{
								OFFSET -15.263000 10.923401 -0.547700
								CHANNELS 3 Xrotation Yrotation Zrotation
								JOINT RightArm
								{
									OFFSET -25.438599 -2.830597 -13.032500
									CHANNELS 3 Xrotation Yrotation Zrotation
									JOINT RightForeArm
									{
										OFFSET -29.960503 0.000000 0.000000
										CHANNELS 3 Xrotation Yrotation Zrotation
										JOINT RightHand
										{
											OFFSET -27.849251 0.000000 0.000000
											CHANNELS 3 Xrotation Yrotation Zrotation
											End Site
											{
												OFFSET 0 0 0
											}
										}
									}
								}
							}
						}
					}
				}
			}
		}
	}
}
MOTION
Frames: 9
Frame Time: 0.03333333
-1.750271 82.883736 0.009563 0.000000 0.000000 0.000000 -6.959673 -31.846908 12.054487 -37.021749 1.491703 12.776181 28.215937 -24.457357 -3.150692 14.168572 -3.251697 -16.884711 0.000000 0.000000 0.000000 -7.282765 -31.492534 11.979162 -20.817513 -14.393095 -44.211900 53.144992 -11.012059 2.233785 -23.391482 -6.377906 35.329406 0.000000 0.000000 0.000000 -5.994349 -31.300554 12.766367 0.770347 0.042221 -1.738701 23.231092 -2.236864 -3.644935 7.905023 2.764795 0.718541 0.000000 0.000000 0.000000 7.830190 2.126791 1.114086 9.877886 -1.069239 2.931632 0.000000 0.000000 0.000000 6.380951 2.913887 0.877950 1.129054 -2.507315 -8.063902 -31.230760 12.230544 -63.133651 16.626951 -25.902313 5.423076 0.000000 0.000000 0.000000 5.884155 1.712096 0.449691 0.388722 10.654051 13.590785 11.642373 -4.857140 41.278907 15.592764 33.096617 -8.775979 0.000000 0.000000 0.000000 
-1.886663 83.203148 0.842728 0.000000 0.000000 0.000000 -7.020798 -26.854728 12.560935 -38.075040 2.886623 12.220811 28.770201 -24.794372 -4.117470 12.902516 -4.075163 -16.519338 0.000000 0.000000 0.000000 -7.599150 -26.161713 12.861823 -16.820335 -15.018181 -42.281972 53.341858 -10.567457 2.162554 -21.110796 -5.805446 38.191133 0.000000 0.000000 0.000000 -7.216616 -26.424837 13.073135 0.367650 -0.713738 -1.505120 22.002531 -2.192624 -3.278893 7.188949 2.928123 0.916633 0.000000 0.000000 0.000000 7.045838 2.375984 1.126011 9.548160 -1.154095 3.074539 0.000000 0.000000 0.000000 5.645691 3.166873 1.026883 1.130740 -1.881316 -7.838853 -31.111559 10.370027 -60.877469 16.845118 -30.443868 7.073399 0.000000 0.000000 0.000000 5.206338 1.965983 0.428470 0.270709 10.994050 14.950108 13.217659 -4.709738 43.720232 15.723777 31.896130 -8.409228 0.000000 0.000000 0.000000 
-2.278523 83.702202 2.819965 0.000000 0.000000 0.000000 -7.952309 -16.956242 13.744124 -37.725245 5.990884 9.565351 26.734182 -26.068769 -6.900798 12.179950 -6.464327 -18.338588 0.000000 0.000000 0.000000 -8.702484 -15.878552 14.042116 -8.907217 -14.913563 -36.388362 52.383084 -9.230593 1.550332 -13.371310 -2.759540 38.111530 0.000000 0.000000 0.000000 -9.602147 -16.717545 14.007820 -0.229474 -1.827105 -1.131847 19.517841 -1.262866 -3.273635 5.534434 3.582880 1.345478 0.000000 0.000000 0.000000 4.890971 3.210370 1.469450 8.825740 -1.094583 3.067840 0.000000 0.000000 0.000000 4.164623 3.958377 1.549826 1.063401 0.607171 -6.426687 -31.686084 5.616321 -56.557566 16.073612 -33.679355 8.158495 0.000000 0.000000 0.000000 3.619048 2.828985 0.752771 -0.296629 11.709519 17.941889 16.339984 -5.755841 43.083904 16.476429 30.059738 -7.941802 0.000000 0.000000 0.000000 
-3.096562 84.277130 5.577221 0.000000 0.000000 0.000000 -10.064557 -3.063844 15.538197 -36.198336 9.180658 5.130933 23.220061 -27.411738 -10.215928 14.377608 -9.272395 -20.254595 0.000000 0.000000 0.000000 -10.595517 -1.530979 15.566037 0.286790 -13.365102 -28.210117 49.425182 -7.010113 0.727286 -1.015007 2.444921 35.929435 0.000000 0.000000 0.000000 -12.597008 -3.233867 15.707579 -0.390952 -2.597033 -0.793587 16.406608 0.483761 -3.339717 3.281815 4.727831 1.910055 0.000000 0.000000 0.000000 2.013451 4.500844 2.023427 7.809363 -0.862038 2.837773 0.000000 0.000000 0.000000 2.298645 5.183772 2.270016 0.720063 4.455537 -4.319486 -32.284078 -1.000020 -50.384028 13.658467 -34.193143 8.074843 0.000000 0.000000 0.000000 1.488865 4.163491 1.337902 -0.996750 12.357567 20.850522 19.598587 -7.201518 39.571425 17.568806 26.897521 -7.191064 0.000000 0.000000 0.000000 
-4.292274 84.889053 8.659786 0.000000 0.000000 0.000000 -13.241558 12.437039 17.918984 -34.018597 11.092545 -0.222728 20.017674 -28.289710 -12.376727 20.761448 -10.917239 -19.490387 0.000000 0.000000 0.000000 -13.137234 14.797060 17.391552 8.168871 -11.130308 -20.148261 44.714605 -4.684814 0.471496 12.484706 7.398182 32.320312 0.000000 0.000000 0.000000 -15.791525 12.123773 18.071953 -0.062345 -2.366755 -0.520011 13.168026 2.845809 -3.109736 0.800549 6.283509 2.516833 0.000000 0.000000 0.000000 -0.861802 6.096397 2.564180 6.669059 -0.463854 2.341228 0.000000 0.000000 0.000000 0.292216 6.798947 2.941149 0.035509 8.856753 -2.242131 -32.744299 -7.788681 -42.547383 9.597621 -31.737635 6.913666 0.000000 0.000000 0.000000 -0.647933 5.798429 2.003240 -1.463661 12.729369 22.446175 22.590373 -8.612907 34.247156 18.708925 22.228885 -6.063316 0.000000 0.000000 0.000000 
-5.852616 85.476028 10.485115 0.000000 0.000000 0.000000 -16.586602 27.163193 20.458822 -32.384918 10.921224 -5.396786 18.933894 -28.686962 -12.036296 29.418895 -9.823564 -15.168467 0.000000 0.000000 0.000000 -16.030271 29.696580 19.368933 13.517191 -9.127621 -13.400887 39.262755 -3.165197 1.121712 23.530545 9.771905 27.690796 0.000000 0.000000 0.000000 -18.706771 26.956983 20.802147 0.240370 -1.934821 -0.717536 10.306133 5.347902 -2.313110 -1.485844 8.076676 3.007569 0.000000 0.000000 0.000000 -3.155950 7.795135 2.888513 5.562280 0.092773 1.562545 0.000000 0.000000 0.000000 -1.516664 8.627094 3.319683 -0.885974 12.992640 -1.033415 -33.774623 -12.744179 -33.166121 4.608764 -28.401363 5.399770 0.000000 0.000000 0.000000 -2.515618 7.584918 2.528964 -1.396294 12.738008 21.957299 24.791722 -9.792687 27.854167 19.663531 17.207647 -4.783365 0.000000 0.000000 0.000000 
-7.473220 85.940468 10.842876 0.000000 0.000000 0.000000 -19.959192 38.844946 22.790530 -32.158679 9.030753 -9.725336 21.025752 -29.269133 -9.038035 35.695528 -5.808961 -9.242132 0.000000 0.000000 0.000000 -18.944467 40.806245 21.401932 16.996212 -7.552839 -8.360886 34.064855 -3.005357 2.039353 29.440403 8.659865 22.761663 0.000000 0.000000 0.000000 -21.018490 38.526167 23.061051 0.332459 -1.648924 -1.045268 7.928542 7.621222 -1.020974 -3.398819 9.883586 3.248830 0.000000 0.000000 0.000000 -4.646378 9.456732 2.889784 4.627457 0.793890 0.549401 0.000000 0.000000 0.000000 -2.973767 10.403627 3.334863 -1.818396 16.166899 -0.959727 -35.580812 -14.693783 -23.076279 -0.541100 -27.001703 4.059631 0.000000 0.000000 0.000000 -3.857031 9.354741 2.756065 -0.899520 12.423020 19.733323 26.238677 -11.439308 21.387865 20.606942 14.224041 -3.690732 0.000000 0.000000 0.000000 
-8.909843 86.074875 9.924828 0.000000 0.000000 0.000000 -22.345452 45.653179 24.142316 -32.679505 6.229893 -12.910734 24.967625 -30.237179 -4.689289 36.310471 -1.197322 -4.028845 0.000000 0.000000 0.000000 -21.070667 47.174730 22.786708 18.506350 -6.633645 -5.311401 30.146553 -4.059144 3.075365 29.401523 5.182244 19.076525 0.000000 0.000000 0.000000 -22.147203 45.248248 24.052672 0.019268 -1.460382 -1.424067 6.200681 9.380513 0.465306 -4.656242 11.474938 3.138655 0.000000 0.000000 0.000000 -5.345817 10.923403 2.595802 3.959618 1.583733 -0.627624 0.000000 0.000000 0.000000 -4.006513 11.913564 3.006166 -2.466362 17.988418 -2.181058 -38.501472 -13.615918 -13.468897 -5.467325 -28.787352 2.846574 0.000000 0.000000 0.000000 -4.689488 10.918413 2.669177 -0.273453 12.031718 17.157153 26.619551 -13.977564 15.658286 21.617608 15.252700 -3.166972 0.000000 0.000000 0.000000 
-10.093598 86.036690 7.919380 0.000000 0.000000 0.000000 -23.100219 47.866673 24.054265 -33.203592 3.730082 -14.929547 28.377151 -31.130790 -0.839778 31.143047 1.630229 -0.711357 0.000000 0.000000 0.000000 -21.882739 49.155369 23.152352 17.748527 -5.767765 -3.991927 27.368418 -4.809141 4.221778 28.564208 3.360297 18.244431 0.000000 0.000000 0.000000 -22.160460 47.566216 23.794072 -0.456142 -1.237294 -1.699523 5.247950 10.477332 1.797892 -5.178424 12.684477 2.716778 0.000000 0.000000 0.000000 -5.399118 12.032726 2.090916 3.496219 2.422371 -1.800316 0.000000 0.000000 0.000000 -4.506734 12.914425 2.445260 -2.703048 18.393966 -4.564435 -41.855785 -10.175028 -5.574281 -9.830597 -33.598694 1.518869 0.000000 0.000000 0.000000 -5.028006 12.107997 2.352426 0.311008 11.759692 15.095565 25.259831 -16.217465 11.144447 22.475526 19.984131 -3.393177 0.000000 0.000000 0.000000 
